<?xml version="1.0" encoding="utf-8"?>
<!-- Generator: Adobe Illustrator 22.0.1, SVG Export Plug-In . SVG Version: 6.00 Build 0)  -->
<svg version="1.1"
	 id="Layer_1" xmlns:cc="http://creativecommons.org/ns#" xmlns:dc="http://purl.org/dc/elements/1.1/" xmlns:rdf="http://www.w3.org/1999/02/22-rdf-syntax-ns#" xmlns:svg="http://www.w3.org/2000/svg"
	 xmlns="http://www.w3.org/2000/svg" xmlns:xlink="http://www.w3.org/1999/xlink" x="0px" y="0px" viewBox="0 0 285.3 60"
	 style="enable-background:new 0 0 285.3 60;" xml:space="preserve">
<style type="text/css">
	.st0{fill:#CCCCCC;}
</style>
<g id="g11" transform="translate(-0.665,0)">
	<path id="path13" class="st0" d="M12.2,41.4c-0.5-1.6-0.8-3.5-0.8-6.2c0-2.6,0.3-4.6,0.8-6.2c1.4-4.5,5.2-6.9,10.2-6.9
		c3.7,0,6.6,1.5,8.6,3.9c0.2,0.2,0.2,0.5-0.1,0.7l-3.2,2.9c-0.3,0.2-0.5,0.2-0.7-0.1c-1.2-1.4-2.5-2.2-4.6-2.2
		c-2.2,0-3.9,1.1-4.6,3.3c-0.4,1.2-0.5,2.7-0.5,4.6s0.1,3.4,0.5,4.7c0.7,2.1,2.4,3.2,4.6,3.2c2.1,0,3.3-0.8,4.6-2.2
		c0.2-0.3,0.5-0.3,0.7-0.1l3.2,2.9c0.3,0.2,0.2,0.5,0.1,0.7c-2,2.3-4.9,3.8-8.6,3.8C17.5,48.3,13.7,45.8,12.2,41.4"/>
	<path id="path15" class="st0" d="M124.5,41.4c-0.5-1.6-0.8-3.5-0.8-6.2c0-2.6,0.3-4.6,0.8-6.2c1.4-4.5,5.2-6.9,10.2-6.9
		c3.7,0,6.6,1.5,8.6,3.9c0.2,0.2,0.2,0.5-0.1,0.7l-3.2,2.9c-0.3,0.2-0.5,0.2-0.7-0.1c-1.2-1.4-2.5-2.2-4.6-2.2
		c-2.2,0-3.9,1.1-4.6,3.3c-0.4,1.2-0.5,2.7-0.5,4.6s0.1,3.4,0.5,4.7c0.7,2.1,2.4,3.2,4.6,3.2c2.1,0,3.3-0.8,4.6-2.2
		c0.2-0.3,0.5-0.3,0.7-0.1l3.2,2.9c0.3,0.2,0.2,0.5,0.1,0.7c-2,2.3-4.9,3.8-8.6,3.8C129.7,48.3,125.9,45.8,124.5,41.4"/>
	<path id="path17" class="st0" d="M254.2,47.7c-0.3,0-0.5-0.2-0.5-0.5V32.7c0-3.2-1.6-5.4-4.7-5.4c-3,0-4.7,2.2-4.7,5.4v14.4
		c0,0.3-0.2,0.5-0.5,0.5H239c-0.3,0-0.5-0.2-0.5-0.5V32.7c0-3.2-1.6-5.4-4.7-5.4c-3,0-4.7,2.2-4.7,5.4v14.4c0,0.3-0.2,0.5-0.5,0.5
		h-4.7c-0.3,0-0.5-0.2-0.5-0.5v-24c0-0.3,0.2-0.5,0.5-0.5h4.7c0.3,0,0.5,0.2,0.5,0.5V25h0.1c1.1-1.6,3.2-2.9,6.5-2.9
		c2.9,0,5.3,1.2,6.8,3.3h0.1c1.9-2.1,4.4-3.3,7.9-3.3c5.8,0,9,3.9,9,9.3v15.8c0,0.3-0.2,0.5-0.5,0.5L254.2,47.7L254.2,47.7
		L254.2,47.7z"/>
	<path id="path19" class="st0" d="M266.6,57c-0.3,0-0.5-0.2-0.5-0.5v-4.1c0-0.3,0.2-0.5,0.5-0.5h0.9c2,0,2.9-0.9,3.7-3l0.7-2.1
		l-9-23.6c-0.1-0.3,0.1-0.5,0.4-0.5h5.1c0.3,0,0.5,0.2,0.6,0.5l5.6,16.3h0.1l5.3-16.3c0.1-0.3,0.3-0.5,0.6-0.5h4.9
		c0.3,0,0.5,0.2,0.4,0.5l-9.5,26c-2.2,5.9-4.2,7.8-8.3,7.8L266.6,57L266.6,57L266.6,57z"/>
	<path id="path21" class="st0" d="M35.8,41.4c-0.6-1.8-0.8-3.4-0.8-6.2c0-2.7,0.3-4.4,0.8-6.2c1.4-4.4,5.2-6.9,10.2-6.9
		c5,0,8.8,2.5,10.2,6.9c0.6,1.8,0.8,3.4,0.8,6.2c0,2.7-0.3,4.4-0.8,6.2c-1.4,4.4-5.2,6.9-10.2,6.9C41,48.3,37.2,45.7,35.8,41.4
		 M50.6,39.8c0.4-1.3,0.5-2.5,0.5-4.6c0-2.1-0.1-3.3-0.5-4.6c-0.7-2.1-2.3-3.3-4.6-3.3c-2.3,0-4,1.2-4.7,3.3
		c-0.4,1.3-0.5,2.5-0.5,4.6c0,2.1,0.1,3.3,0.5,4.6c0.7,2.1,2.4,3.3,4.7,3.3C48.3,43.1,49.9,41.9,50.6,39.8"/>
	<path id="path23" class="st0" d="M157,22.1c-4.1,0-6.8,1-8.8,2.4c-0.2,0.2-0.3,0.4-0.1,0.7l1.9,3.4c0.2,0.3,0.5,0.3,0.7,0.1
		c1.2-0.9,2.9-1.7,5.7-1.7c4,0,5.4,1.2,5.5,3.9h0v0c0,0.1,0,0.1,0,0.2v8.1c0,2.9-2,4.3-5.5,4.3c-2.8,0-4.3-1-4.3-3.1
		c0-2.3,1.6-3.4,5.3-3.4l1.1,0c0.3,0,0.5-0.2,0.5-0.5v-3.3c0-0.3-0.2-0.5-0.5-0.5h-0.2l-1.8,0c-6.1,0-9.9,2.5-9.9,7.9
		c0,5.2,3.8,7.6,8.3,7.6c3.5,0,5.8-1.2,7-2.9h0.1v1.8c0,0.3,0.2,0.5,0.5,0.5h4.3c0.3,0,0.5-0.2,0.5-0.5V30.8
		C167.4,24.7,164.6,22.1,157,22.1"/>
	<path id="path25" class="st0" d="M95.7,32.7c-0.1,0-0.2,0.1-0.2,0.2v0.1v0.4v2.7v0.4v0.2c0,0.1,0.1,0.2,0.2,0.2h0.1h12.6
		c0.4,0,0.6-0.2,0.6-0.5c0-4-0.3-5.8-0.8-7.5c-1.4-4.3-5.1-6.9-10.2-6.9c-4.9,0-8.7,2.5-10.1,6.9c-0.5,1.6-0.8,3.6-0.8,6.2
		s0.4,4.5,0.9,6.1c1.4,4.4,5.1,7,10.3,7c4.6,0,8.1-1.8,10.2-4.3c0.2-0.3,0.2-0.5-0.1-0.7l-3-2.7c-0.3-0.2-0.5-0.2-0.8,0.1
		c-1.2,1.3-3,2.4-5.8,2.4c-2.8,0-4.7-1.3-5.5-3.8c-0.1-0.3-0.2-0.7-0.3-1.1h0c-0.2-1.1-0.3-2.1-0.3-3.6c0-1.4,0.1-2.3,0.3-3.5
		c0,0,0,0,0,0c0,0,0,0,0,0v0c0-0.3,0.1-0.5,0.2-0.8c0.7-2,2.5-3.2,4.9-3.2c2.3,0,4.2,1.2,4.8,3.2c0.2,0.6,0.3,1.2,0.3,2.1
		c0,0.2-0.1,0.3-0.3,0.3h-6.7l0,0L95.7,32.7C95.7,32.7,95.7,32.7,95.7,32.7z"/>
	<path id="path27" class="st0" d="M82.2,12.4h-4.7c-0.3,0-0.5,0.2-0.5,0.5V25l0,0v10c0,0,0,0.1,0,0.1c0,0,0,0.1,0,0.1v1.3h0
		c-0.1,1.4-0.2,2.4-0.5,3.3c-0.7,2.1-2.3,3.2-4.6,3.2c-2.3,0-3.9-1.1-4.6-3.2c-0.4-1.1-0.5-2.4-0.5-4.7c0-2.3,0.2-3.5,0.5-4.7
		c0.7-2,2.2-3.2,4.4-3.2h2c0.1,0,0.2-0.1,0.2-0.2l0-4.7c0-0.1-0.1-0.2-0.2-0.2l-1.6,0h-1.9v0c-4.1,0-7.2,2.1-8.4,6
		c-0.6,1.9-0.9,3.7-0.9,7c0,3.4,0.3,5.1,0.9,7c1.3,4,4.4,6,8.6,6c3.3,0,5.4-1.2,6.6-3H77v1.9c0,0.3,0.2,0.5,0.5,0.5h4.7
		c0.3,0,0.5-0.2,0.5-0.5V12.9C82.8,12.6,82.6,12.4,82.2,12.4"/>
	<path id="path29" class="st0" d="M205.9,32.7c-0.1,0-0.2,0.1-0.2,0.2v0.1v0.4v2.7v0.4v0.2c0,0.1,0.1,0.2,0.2,0.2h0.1h12.6
		c0.4,0,0.6-0.2,0.6-0.5c0-4-0.3-5.8-0.8-7.5c-1.4-4.3-5.1-6.9-10.2-6.9c-4.9,0-8.7,2.5-10.1,6.9c-0.5,1.6-0.8,3.6-0.8,6.2
		s0.4,4.5,0.9,6.1c1.4,4.4,5.1,7,10.3,7c4.6,0,8.1-1.8,10.2-4.3c0.2-0.3,0.2-0.5-0.1-0.7l-3-2.7c-0.3-0.2-0.5-0.2-0.8,0.1
		c-1.2,1.3-3,2.4-5.8,2.4c-2.8,0-4.7-1.3-5.5-3.8c-0.1-0.3-0.2-0.7-0.3-1.1h0c-0.2-1.1-0.3-2.1-0.3-3.6c0-1.4,0.1-2.3,0.3-3.5
		c0,0,0,0,0,0c0,0,0,0,0,0v0c0.1-0.3,0.1-0.5,0.2-0.8c0.7-2,2.5-3.2,4.9-3.2c2.3,0,4.2,1.2,4.8,3.2c0.2,0.6,0.3,1.2,0.3,2.1
		c0,0.2-0.1,0.3-0.3,0.3h-6.7v0L205.9,32.7L205.9,32.7L205.9,32.7z"/>
	<path id="path31" class="st0" d="M192.8,12.4H188c-0.3,0-0.5,0.2-0.5,0.5v12.1v10v0.1v0.1v1.3h0c-0.1,1.4-0.2,2.4-0.5,3.3
		c-0.7,2.1-2.3,3.2-4.6,3.2c-2.3,0-3.9-1.1-4.6-3.2c-0.4-1.1-0.5-2.4-0.5-4.7c0-2.3,0.2-3.5,0.5-4.7c0.7-2,2.2-3.2,4.4-3.2l2,0
		c0.3,0,0.5-0.2,0.5-0.5v-4.2c0-0.3-0.2-0.5-0.5-0.5H184l-3,0c0,0,0,0-0.1,0s0,0-0.1,0h-0.1v0c-4.1,0-7.2,2.1-8.4,6
		c-0.6,1.9-0.9,3.7-0.9,7.1c0,3.4,0.3,5.1,0.9,7.1c1.3,4,4.4,6,8.6,6c3.3,0,5.4-1.2,6.6-3h0.1v1.9c0,0.3,0.2,0.5,0.5,0.5h4.7
		c0.3,0,0.5-0.2,0.5-0.5V12.9C193.3,12.6,193.1,12.4,192.8,12.4"/>
	<path id="path33" class="st0" d="M124.1,54.8v4.7c0,0.3,0.2,0.5,0.5,0.5h17.5c0.3,0,0.5-0.2,0.5-0.5v-4.7c0-0.3-0.2-0.5-0.5-0.5
		h-17.5C124.3,54.2,124.1,54.5,124.1,54.8"/>
	<path id="path35" class="st0" d="M119.6,0.2C119.6,0.2,119.6,0.1,119.6,0.2C119.6,0.1,119.6,0.1,119.6,0.2
		c-0.1-0.1-0.2-0.2-0.4-0.2h0H1.2c0,0-0.1,0-0.1,0c0,0,0,0,0,0C1,0,1,0,1,0c0,0,0,0,0,0C0.8,0.1,0.7,0.3,0.7,0.5v0v59v0
		c0,0.2,0.1,0.3,0.2,0.4c0,0,0,0,0,0v0C1,60,1.1,60,1.2,60h118.1h0c0.2,0,0.3-0.1,0.4-0.2c0.1-0.1,0.1-0.2,0.1-0.3v0v-59v0
		C119.8,0.4,119.7,0.3,119.6,0.2 M6.9,54.2c0,0-0.1,0-0.1,0c0,0,0,0,0,0c0,0,0,0-0.1,0c0,0,0,0,0,0c-0.2-0.1-0.3-0.2-0.3-0.5V11V6.3
		c0-0.2,0.1-0.4,0.3-0.5c0,0,0,0,0,0c0,0,0.1,0,0.1,0c0,0,0.1,0,0.1,0h106.6c0,0,0.1,0,0.1,0c0,0,0,0,0,0c0,0,0,0,0.1,0c0,0,0,0,0,0
		c0.2,0.1,0.3,0.2,0.3,0.5v47.5c0,0.2-0.1,0.4-0.3,0.5c0,0,0,0,0,0c0,0,0,0-0.1,0c0,0,0,0,0,0c0,0-0.1,0-0.1,0L6.9,54.2
		C6.9,54.2,6.9,54.2,6.9,54.2z"/>
</g>
</svg>
