<?xml version="1.0" encoding="utf-8"?>
<!-- Generator: Adobe Illustrator 22.0.1, SVG Export Plug-In . SVG Version: 6.00 Build 0)  -->
<svg version="1.1" id="Layer_1" xmlns="http://www.w3.org/2000/svg" xmlns:xlink="http://www.w3.org/1999/xlink" x="0px" y="0px"
	 viewBox="0 0 494.6 170.8" style="enable-background:new 0 0 494.6 170.8;" xml:space="preserve">
<style type="text/css">
	.st0{fill:#CCCCCC;}
	.st1{fill:#FFFFFF;}
	.st2{display:none;}
	.st3{display:inline;fill:none;stroke:#D8D8D8;stroke-width:0.4925;stroke-miterlimit:10;}
	.st4{display:inline;fill:none;stroke:#D8D8D8;stroke-width:0.5589;stroke-miterlimit:10;}
	.st5{display:inline;}
</style>
<g id="Artwork">
	<g>
		<g>
			<circle class="st0" cx="443.4" cy="59.3" r="10.6"/>
			<path class="st0" d="M292,104.5c5.2,0,8.2-3.9,8-7.7c-0.1-2-0.3-3.3-0.5-4.3c-3.2-13.8-14.4-24-27.7-24
				c-15.8,0-28.6,14.3-28.6,31.9s12.8,31.9,28.6,31.9c9.9,0,17-3.6,22.1-9.3c2.5-2.8,2-7.1-1-9.2c-2.5-1.7-5.6-1.1-7.9,0.8
				c-2.2,1.9-6.4,5.7-13.2,5.7c-8,0-14.8-6.9-16.3-16H292V104.5z M271.7,80.6c7.2,0,13.4,5.6,15.7,13.3H256
				C258.3,86.1,264.5,80.6,271.7,80.6z"/>
			<path class="st0" d="M243.8,74.8c0-3-2.2-5.4-5-5.9c-8.7-1.3-16.9,1.9-21.6,7.8v-0.8c0-3.7-3-6-6-6c-3.3,0-6,2.7-6,6v49
				c0,3.2,2.4,6,5.6,6.2c3.5,0.2,6.4-2.5,6.4-6V99.8c0-11.2,8.4-20.4,20-19.1c0.4,0,0.8,0,1.2,0C241.4,80.5,243.8,77.9,243.8,74.8z"
				/>
			<path class="st0" d="M449.4,81.2c0-3.3-2.7-6-6-6s-6,2.7-6,6c0,0.2,0,42,0,43.9c0,3.3,2.7,6,6,6s6-2.7,6-6
				C449.4,123.3,449.4,81.5,449.4,81.2z"/>
			<path class="st0" d="M360.2,48c0-3.3-2.7-6-6-6l0,0c-3.3,0-6,2.7-6,6v26.7c-4.1-4.1-9.2-6.1-15.3-6.1
				c-15.8,0-28.6,14.3-28.6,31.9s12.8,31.9,28.6,31.9c6.1,0,11.3-2.1,15.4-6.2c0.5,2.8,3,4.9,5.9,4.9c3.3,0,6-2.7,6-6V48z
				 M333,120.5c-9.2,0-16.6-8.9-16.6-20c0-11,7.4-20,16.6-20s16.6,8.9,16.6,20S342.1,120.5,333,120.5z"/>
			<path class="st0" d="M422.8,48c0-3.3-2.7-6-6-6l0,0c-3.3,0-6,2.7-6,6v26.7c-4.1-4.1-9.2-6.1-15.3-6.1
				c-15.8,0-28.6,14.3-28.6,31.9s12.8,31.9,28.6,31.9c6.1,0,11.3-2.1,15.4-6.2c0.5,2.8,3,4.9,5.9,4.9c3.3,0,6-2.7,6-6V48z
				 M395.5,120.5c-9.2,0-16.6-8.9-16.6-20c0-11,7.4-20,16.6-20s16.6,8.9,16.6,20S404.7,120.5,395.5,120.5z"/>
			<path class="st0" d="M479.8,125.2V80.6h5.3c2.8,0,5.3-2.1,5.5-5c0.2-3.1-2.3-5.7-5.3-5.7h-5.5v-8.4c0-3.2-2.4-6-5.6-6.2
				c-3.5-0.2-6.4,2.5-6.4,6V70h-5c-2.8,0-5.3,2.1-5.5,5c-0.2,3.1,2.3,5.7,5.3,5.7h5.1v44.6c0,3.3,2.7,6,6,6l0,0
				C477.2,131.1,479.8,128.5,479.8,125.2z"/>
		</g>
		<g>
			<circle class="st0" cx="87.8" cy="85.4" r="83.8"/>
			<path class="st1" d="M143.7,85.4c0-6.8-5.5-12.2-12.2-12.2c-3.3,0-6.3,1.3-8.5,3.4c-8.4-6-19.9-9.9-32.7-10.4L95.9,40l18.2,3.9
				c0.2,4.6,4,8.3,8.7,8.3c4.8,0,8.7-3.9,8.7-8.7s-3.9-8.7-8.7-8.7c-3.4,0-6.4,2-7.8,4.9l-20.3-4.3c-0.6-0.1-1.2,0-1.6,0.3
				c-0.5,0.3-0.8,0.8-0.9,1.4L86,66.3c-13,0.4-24.7,4.3-33.2,10.4c-2.2-2.1-5.2-3.4-8.5-3.4c-6.8,0-12.2,5.5-12.2,12.2
				c0,5,3,9.2,7.2,11.1c-0.2,1.2-0.3,2.4-0.3,3.7c0,18.8,21.9,34.1,48.9,34.1s48.9-15.2,48.9-34.1c0-1.2-0.1-2.5-0.3-3.7
				C140.7,94.7,143.7,90.4,143.7,85.4z M59.9,94.1c0-4.8,3.9-8.7,8.7-8.7c4.8,0,8.7,3.9,8.7,8.7s-3.9,8.7-8.7,8.7
				C63.8,102.9,59.9,98.9,59.9,94.1z M108.6,117.2c-6,6-17.4,6.4-20.7,6.4c-3.4,0-14.8-0.5-20.7-6.4c-0.9-0.9-0.9-2.3,0-3.2
				s2.3-0.9,3.2,0c3.8,3.8,11.8,5.1,17.5,5.1s13.8-1.3,17.5-5.1c0.9-0.9,2.3-0.9,3.2,0C109.4,114.9,109.4,116.3,108.6,117.2z
				 M107,102.9c-4.8,0-8.7-3.9-8.7-8.7s3.9-8.7,8.7-8.7s8.7,3.9,8.7,8.7C115.7,98.9,111.8,102.9,107,102.9z"/>
		</g>
	</g>
</g>
<g id="Spacing_Guides" class="st2">
	<rect x="-52" y="-54.4" class="st3" width="598.6" height="55.9"/>
	<rect x="-52" y="169.2" class="st3" width="598.6" height="55.9"/>
	<rect x="-52" y="-54.4" class="st4" width="55.9" height="279.6"/>
	<rect x="490.7" y="-54.4" class="st4" width="55.9" height="279.6"/>
	<g id="reddit_round" class="st5">
	</g>
	<g id="icon_2" class="st5">
	</g>
</g>
</svg>
