<?xml version="1.0" encoding="utf-8"?>
<!-- Generator: Adobe Illustrator 22.0.1, SVG Export Plug-In . SVG Version: 6.00 Build 0)  -->
<svg version="1.1" id="Layer_1" xmlns="http://www.w3.org/2000/svg" xmlns:xlink="http://www.w3.org/1999/xlink" x="0px" y="0px"
	 viewBox="0 0 360 78" style="enable-background:new 0 0 360 78;" xml:space="preserve">
<style type="text/css">
	.st0{fill:#CCCCCC;}
</style>
<g>
	<path class="st0" d="M133.9,37.6l-6.5-1.4c-3.3-0.7-5.1-2.7-5.1-5.7c0-3.8,3.3-6.6,7.8-6.6c6.1,0,7.9,4.5,8.4,5.9
		c0.1,0.5,0.4,0.9,0.9,1.1c0.4,0.2,0.9,0.2,1.3,0.1l3.4-1.2c0.9-0.3,1.3-1.2,1.1-2.1c-0.9-3.1-4.2-10.4-15.2-10.4
		c-8.2,0-15.1,6.3-15.1,13.7c0,6.4,4.2,11.1,11.2,12.6l6.2,1.4c3.8,0.8,6,3.1,6,6.1c0,3.9-3.2,6.3-8.3,6.3c-6,0-8.9-4-9.7-7.7
		c-0.1-0.5-0.4-0.9-0.8-1.2s-0.9-0.3-1.4-0.2l-3.8,1.2c-0.8,0.3-1.3,1.1-1.2,1.9c1.2,6.2,6.2,12.7,16.9,12.7c9,0,15.8-5.9,15.8-13.7
		C145.8,44,141.5,39.2,133.9,37.6 M172.7,43.6c0,0.1,0,0.2-0.1,0.3c0,0-0.1,0.1-0.3,0.1h-13.9c-0.1,0-0.2,0-0.3-0.1
		c0,0-0.1-0.1-0.1-0.3c0.6-2.9,3.1-5.8,7.2-5.8C169.3,37.7,172.1,39.9,172.7,43.6L172.7,43.6z M165.2,31.2
		c-7.3,0-14.9,6.1-14.9,16.4c0,4.9,1.6,9.2,4.7,12.2c2.8,2.8,6.7,4.4,10.9,4.4c6.3,0,11.4-3.3,13.6-8.8c0.2-0.5,0.2-1,0-1.4
		s-0.6-0.8-1-0.9l-3.1-1.1c-0.9-0.3-1.8,0.1-2.1,0.9c-1.3,3.1-3.8,4.7-7.4,4.7c-4.3,0-7.6-2.9-8.2-7.2c0-0.1,0-0.2,0.1-0.3
		c0,0,0.1-0.1,0.3-0.1h20.3c0.9,0,1.7-0.7,1.7-1.6c0-0.3,0-0.6,0-0.9C180.2,37.5,174.4,31.2,165.2,31.2L165.2,31.2z M199.8,55.6
		c-4.9,0-7.9-3.4-7.9-8.8s3.1-8.8,7.9-8.8c4.6,0,7.8,3.5,7.8,8.8C207.5,52,204.4,55.6,199.8,55.6L199.8,55.6z M212.7,32.2H209
		c-0.9,0-1.7,0.8-1.7,1.8c0,0.2-0.2,0.3-0.2,0.3c-0.1,0-0.2,0.1-0.3,0c-1.9-1.7-4.6-2.6-7.9-2.6c-8.3,0-14.3,6.4-14.3,15.1
		s6,15.1,14.3,15.1c3.1,0,5.9-1,7.8-2.8C206.8,59,207,59,207,59c0.1,0,0.2,0.1,0.2,0.3v1.3c0,6.1-2.7,8.9-8.4,8.9
		c-3.6,0-6.5-2.2-7.2-5.7c-0.1-0.5-0.4-0.8-0.8-1.1s-0.9-0.3-1.3-0.2l-3.6,0.8c-0.9,0.2-1.5,1.1-1.3,2.1c1.3,6.3,7,10.6,14.2,10.6
		c5.4,0,9.5-1.6,12.2-4.9c2.2-2.7,3.4-6.4,3.4-10.7V33.9C214.5,33,213.7,32.2,212.7,32.2L212.7,32.2z M256.4,31.3
		c-4.1,0-7.4,1.5-9.6,4.4c-0.1,0.1-0.2,0.2-0.3,0.2s-0.2,0-0.2-0.1c-1.8-2.8-5-4.5-8.7-4.5c-2.9,0-5.8,1-7.7,2.8
		c-0.2,0.1-0.3,0.1-0.4,0.1c-0.1,0-0.2-0.1-0.2-0.3c0-1-0.8-1.7-1.7-1.7H224c-0.9,0-1.7,0.8-1.7,1.7v27.6c0,1,0.8,1.7,1.7,1.7h3.7
		c0.9,0,1.7-0.8,1.7-1.7V44.7c0-4.1,2.5-6.8,6.2-6.8c4.9,0,5.6,3.8,5.6,6.1v17.6c0,1,0.8,1.7,1.7,1.7h3.7c0.9,0,1.7-0.8,1.7-1.7v-17
		c0-4,2.5-6.8,6.2-6.8c4.9,0,5.6,3.8,5.6,6.1v17.6c0,1,0.8,1.7,1.7,1.7h3.7c1,0,1.7-0.8,1.7-1.7V43.3
		C267.3,35,261.8,31.3,256.4,31.3 M281.2,44c-0.1,0-0.2,0-0.3-0.1c0,0-0.1-0.1-0.1-0.3c0.6-2.9,3.1-5.8,7.2-5.8c4,0,6.8,2.2,7.4,5.8
		c0,0.1,0,0.2-0.1,0.3c0,0-0.1,0.1-0.3,0.1H281.2L281.2,44z M288,31.3c-7.3,0-14.9,6.1-14.9,16.4c0,4.9,1.6,9.2,4.7,12.2
		c2.8,2.8,6.7,4.3,10.9,4.3c6.3,0,11.3-3.3,13.6-8.8c0.2-0.5,0.2-1,0-1.4s-0.6-0.8-1-0.9l-3.1-1.1c-0.9-0.3-1.8,0.1-2.1,0.9
		c-1.3,3.1-3.8,4.7-7.4,4.7c-4.3,0-7.6-2.9-8.2-7.2c0-0.1,0-0.2,0.1-0.3c0,0,0.1-0.1,0.3-0.1h20.3c0.9,0,1.7-0.7,1.7-1.6
		c0-0.3,0-0.6,0-0.9C302.9,37.5,297.2,31.2,288,31.3L288,31.3z M324.8,31.3c-3.1,0-5.8,1.1-7.9,3.1c-0.1,0.1-0.3,0.1-0.4,0.1
		s-0.2-0.1-0.2-0.3V34c0-1-0.8-1.7-1.7-1.7H311c-1,0-1.7,0.8-1.7,1.7v27.6c0,1,0.8,1.7,1.7,1.7h3.7c1,0,1.7-0.8,1.7-1.7V45.4
		c0-3.6,1.6-7.5,6.2-7.5c4.1,0,6.2,2.3,6.2,6.8v16.8c0,1,0.8,1.7,1.7,1.7h3.7c1,0,1.7-0.8,1.7-1.7V43.8
		C336.1,36.1,331.8,31.3,324.8,31.3 M353.5,38.8h4.4c1,0,1.7-0.8,1.7-1.7v-3.2c0-1-0.8-1.7-1.7-1.7h-4.4c-0.2,0-0.4-0.2-0.4-0.4
		v-7.3c0-1-0.8-1.7-1.7-1.7h-3.2c-1,0-1.7,0.8-1.7,1.7v3.8c0,1.8-0.7,3.9-3.9,3.9H342c-1,0-1.7,0.8-1.7,1.7v3.2c0,1,0.8,1.7,1.7,1.7
		h3.6c0.2,0,0.4,0.2,0.4,0.3v15.3c0,5.6,3.4,9.1,9,9.1c1.5,0,2.7-0.2,3.3-0.3c0.8-0.2,1.3-0.9,1.3-1.7v-2.9c0-0.5-0.2-1-0.6-1.3
		s-0.9-0.5-1.3-0.4c-0.4,0-0.8,0.1-1.1,0.1c-2.5,0-3.5-0.9-3.5-3.4V39.2C353.1,39,353.3,38.8,353.5,38.8"/>
	<g transform="translate(0 45)">
		<path class="st0" d="M51.9,8.5H4c-2.2,0-4-1.8-4-4s1.8-4,4-4h47.9c2.2,0,4,1.8,4,4S54.1,8.5,51.9,8.5"/>
		<path class="st0" d="M41.7,33c-3.9,0-7.8-0.6-11.5-1.7c-2.1-0.7-3.3-2.9-2.6-5c0.7-2.1,2.9-3.3,5-2.6c2.9,0.9,6,1.4,9.1,1.4
			C55.2,25,67,16.3,71,3.3c0.6-2.1,2.9-3.3,5-2.7s3.3,2.9,2.7,5C73.6,22,58.8,33,41.7,33"/>
	</g>
	<path class="st0" d="M79.3,33.2H31.4c-2.2,0-4-1.8-4-4s1.8-4,4-4h47.9c2.2,0,4,1.8,4,4S81.5,33.2,79.3,33.2"/>
	<path class="st0" d="M8.5,33.2c-0.4,0-0.8-0.1-1.2-0.2c-2.1-0.6-3.3-2.9-2.7-5c5-16.3,19.9-27.3,37-27.3c3.9,0,7.8,0.6,11.5,1.7
		c2.1,0.7,3.3,2.9,2.6,5s-2.9,3.3-5,2.6c-2.9-0.9-6-1.4-9.1-1.4c-13.6,0-25.4,8.7-29.3,21.7C11.8,32.1,10.2,33.2,8.5,33.2"/>
	<path class="st0" d="M69.4,13.9c0,2.2-1.8,4-4,4c-2.2,0-4-1.8-4-4s1.8-4,4-4C67.6,9.9,69.4,11.7,69.4,13.9 M21.9,64.7
		c0,2.2-1.8,4-4,4s-4-1.8-4-4s1.8-4,4-4C20.1,60.7,21.9,62.5,21.9,64.7"/>
</g>
</svg>
