<?xml version="1.0" encoding="utf-8"?>
<!-- Generator: Adobe Illustrator 22.0.1, SVG Export Plug-In . SVG Version: 6.00 Build 0)  -->
<svg version="1.1" id="Layer_1" xmlns="http://www.w3.org/2000/svg" xmlns:xlink="http://www.w3.org/1999/xlink" x="0px" y="0px"
	 viewBox="0 0 276.7 56.7" style="enable-background:new 0 0 276.7 56.7;" xml:space="preserve">
<style type="text/css">
	.st0{fill:#CCCCCC;}
</style>
<g id="Gray">
	<path class="st0" d="M165.9,30.2c-0.4-0.1-1.7-0.3-2.1-0.4c-2.1-0.4-3.9-0.9-3.9-3c0-1.8,1.9-2.7,4.3-2.7c3.5,0,6.6,1.6,7,1.8
		l1.9-5.1c-0.7-0.4-3.9-2.1-8.9-2.1c-4.6,0-10.1,2.4-10.1,8.3c0,5.3,3.8,7,7.5,7.7c0.5,0.1,2.1,0.4,2.6,0.4c2.5,0.4,3.8,1.3,3.8,2.9
		c0,2-1.9,3-4.8,3c-4.7,0-7.4-1.4-8.2-1.7l-2.1,5c0.7,0.3,3.8,2.1,10.1,2.1c6,0,10.9-3,10.9-8.5C173.6,32.9,170.1,30.9,165.9,30.2"
		/>
	<path class="st0" d="M184.3,9.4l-5.7,3.2v6.7h-3v5.5h3v11.8c0,5,2.1,9.6,9.4,9.6h2.3v-5.5h-0.9c-3.6,0-5.1-2.1-5.1-4.9v-11h6.5
		v-5.5h-6.5V9.4z"/>
	<path class="st0" d="M228.8,24.3c2.2,0,4.5,1,5.2,3.5l5.2-2c-1.4-5.1-6.2-7-10.4-7c-7.5,0-10.6,4.7-10.6,9.2v9.4
		c0,4.5,3,9.2,10.6,9.2c4.2,0,9-1.9,10.4-7l-5.2-2c-0.7,2.4-3,3.5-5.2,3.5c-3.9,0-4.9-2.1-4.9-4.5v-7.7
		C223.9,26.4,224.9,24.3,228.8,24.3"/>
	<polygon class="st0" points="253.2,31.3 263.9,19.3 256.8,19.3 247.7,29.8 247.7,9.4 242,9.4 242,46.1 247.7,46.1 247.7,37.5 
		249.5,35.4 257.7,46.1 264.6,46.1 	"/>
</g>
<g id="Red">
	<path class="st0" d="M206.8,25.1h-5.9c-0.9,0-1.7,0.8-1.7,1.7v6.4h-5.8v-6.4c0-4.2,3.4-7.6,7.6-7.6h5.9v5.9H206.8z"/>
	<path class="st0" d="M201.9,40.2h5.9c0.9,0,1.7-0.8,1.7-1.7v-6.4h5.8v6.4c0,4.2-3.4,7.6-7.6,7.6h-5.9v-5.9
		C201.8,40.2,201.9,40.2,201.9,40.2z"/>
	<path class="st0" d="M105.2,19.3h6.5v5.5h-6.5v11c0,2.8,1.5,4.9,5.1,4.9h0.9v5.5h-2.3c-7.3,0-9.4-4.5-9.4-9.6V24.7h-9.6v11
		c0,2.8,1.5,4.9,5.1,4.9h0.9v5.5h-2.3c-7.3,0-9.4-4.5-9.4-9.6V24.7h-2.9v-5.5h2.9v-6.7l5.7-3.2v9.8h9.6v-6.7l5.7-3.2L105.2,19.3
		L105.2,19.3z"/>
	<path class="st0" d="M43.7,18.7c-1.8,0-3.6,0.3-5.3,1V9.4h-5.7V46h5.7V25.1c1.1-0.7,2.8-1.2,4.4-1.2c3.6,0,5.3,2,5.3,4.9V46h5.7
		V28.1C53.8,22.7,49.9,18.7,43.7,18.7"/>
	<path class="st0" d="M72.6,40.7c-1.1,0.6-2.5,0.9-3.8,0.9c-4.3,0-5.9-2.2-5.9-5.2V19.3h-5.7v17.3c0,6.7,3.9,10,10.9,10
		c3.3,0,7-0.8,10.2-2.2V19.3h-5.7C72.6,19.3,72.6,40.7,72.6,40.7z"/>
	<path class="st0" d="M22,30.2c-0.4-0.1-1.7-0.3-2.1-0.4c-2.1-0.4-3.9-0.9-3.9-3c0-1.8,1.9-2.7,4.3-2.7c3.5,0,6.6,1.6,7,1.8l1.9-5.1
		c-0.7-0.4-3.9-2.1-8.9-2.1c-4.5,0-10.1,2.4-10.1,8.3c0,5.3,3.8,7,7.5,7.7c0.5,0.1,2.1,0.4,2.6,0.4c2.5,0.4,3.8,1.3,3.8,2.9
		c0,2-1.9,3-4.8,3c-4.7,0-7.4-1.4-8.2-1.7l-2.1,5c0.7,0.3,3.8,2.1,10.1,2.1c6,0,10.9-3,10.9-8.5C29.8,32.9,26.3,30.9,22,30.2"/>
	<path class="st0" d="M135.4,27.9c0-4.9-3.7-9.2-10.5-9.2c-7.6,0-10.6,4.8-10.6,9.2v8.9c0,6.2,3.9,9.7,10.6,9.7
		c5.8,0,8.9-3.4,9.8-5.4l-4.8-2.9c-0.4,1.2-2.3,2.9-4.9,2.9c-3.5,0-4.9-2-4.9-4.4v-1.5h15.3V27.9z M129.7,30.6H120v-2
		c0-2.2,1.1-4.5,4.8-4.5c3.6,0,4.8,2.3,4.8,4.4L129.7,30.6L129.7,30.6z"/>
	<path class="st0" d="M139,28v18.1h5.7V28.4c0-1.5,0.9-4.2,5.1-4.2c0.7,0,2.1,0.2,2.6,0.3V19c-0.5-0.1-1.7-0.3-2.9-0.3
		C142.2,18.7,139,23.3,139,28"/>
	<g>
		<path class="st0" d="M270.1,24.3c-1.5,0-2.8-1.2-2.8-2.7s1.2-2.8,2.8-2.8c1.5,0,2.8,1.2,2.8,2.8C272.9,23.1,271.7,24.3,270.1,24.3
			z M270.1,19.4c-1.2,0-2.1,0.9-2.1,2.2c0,1.1,0.9,2.1,2.1,2.1s2.1-1,2.1-2.1C272.2,20.3,271.3,19.4,270.1,19.4z M270.6,22.9
			C270.5,22.9,270.5,22.9,270.6,22.9l-0.5-1h-0.3v0.9v0.1h-0.5c0,0-0.1,0-0.1-0.1V20h1.1c0.7,0,1,0.5,1,0.9V21
			c0,0.4-0.2,0.7-0.6,0.9l0.5,0.9v0.1H270.6z M270.6,21c0-0.2-0.1-0.4-0.5-0.4h-0.4v0.9h0.4C270.5,21.5,270.6,21.3,270.6,21
			L270.6,21z"/>
	</g>
</g>
</svg>
